<svg width="32" height="32" viewBox="0 0 32 32" fill="none" xmlns="http://www.w3.org/2000/svg">
  <!-- Background circle with gradient -->
  <circle cx="16" cy="16" r="16" fill="url(#gradient)"/>
  
  <!-- Light bulb icon -->
  <path d="M16 4C12.6863 4 10 6.68629 10 10C10 12.2091 11.2091 14.2091 13 15.2091V18C13 18.5523 13.4477 19 14 19H18C18.5523 19 19 18.5523 19 18V15.2091C20.7909 14.2091 22 12.2091 22 10C22 6.68629 19.3137 4 16 4Z" fill="white" fill-opacity="0.95"/>
  
  <!-- Bulb base -->
  <rect x="14" y="19" width="4" height="2" rx="0.5" fill="white" fill-opacity="0.8"/>
  <rect x="14.5" y="21" width="3" height="1.5" rx="0.5" fill="white" fill-opacity="0.7"/>
  
  <!-- Light rays -->
  <path d="M16 2V3.5" stroke="white" stroke-width="1.5" stroke-linecap="round" fill-opacity="0.9"/>
  <path d="M24.5 8L23.5 8.5" stroke="white" stroke-width="1.5" stroke-linecap="round" fill-opacity="0.9"/>
  <path d="M8.5 8.5L7.5 8" stroke="white" stroke-width="1.5" stroke-linecap="round" fill-opacity="0.9"/>
  <path d="M26 16H24.5" stroke="white" stroke-width="1.5" stroke-linecap="round" fill-opacity="0.9"/>
  <path d="M7.5 16H6" stroke="white" stroke-width="1.5" stroke-linecap="round" fill-opacity="0.9"/>
  
  <!-- Gradient definition -->
  <defs>
    <linearGradient id="gradient" x1="0%" y1="0%" x2="100%" y2="100%">
      <stop offset="0%" style="stop-color:#3B82F6;stop-opacity:1" />
      <stop offset="100%" style="stop-color:#8B5CF6;stop-opacity:1" />
    </linearGradient>
  </defs>
</svg>
